<?xml version="1.0" encoding="UTF-8" standalone="no"?>
<!-- Created with Inkscape (http://www.inkscape.org/) -->

<svg
   xmlns:dc="http://purl.org/dc/elements/1.1/"
   xmlns:cc="http://creativecommons.org/ns#"
   xmlns:rdf="http://www.w3.org/1999/02/22-rdf-syntax-ns#"
   xmlns:svg="http://www.w3.org/2000/svg"
   xmlns="http://www.w3.org/2000/svg"
   xmlns:sodipodi="http://sodipodi.sourceforge.net/DTD/sodipodi-0.dtd"
   xmlns:inkscape="http://www.inkscape.org/namespaces/inkscape"
   width="3628.3464"
   height="3628.3464"
   id="svg3320"
   version="1.1"
   inkscape:version="0.48.5 r10040"
   sodipodi:docname="Icon 2 - Monkins.pdf">
  <defs
     id="defs3322" />
  <sodipodi:namedview
     inkscape:document-units="mm"
     pagecolor="#ffffff"
     bordercolor="#666666"
     borderopacity="1.0"
     inkscape:pageopacity="0.0"
     inkscape:pageshadow="2"
     inkscape:zoom="0.14276476"
     inkscape:cx="1814.1732"
     inkscape:cy="1814.1732"
     inkscape:current-layer="layer1"
     id="namedview3324"
     showgrid="false"
     units="mm"
     inkscape:object-nodes="true"
     inkscape:snap-page="true"
     inkscape:window-width="1366"
     inkscape:window-height="705"
     inkscape:window-x="-8"
     inkscape:window-y="-8"
     inkscape:window-maximized="1" />
  <metadata
     id="metadata3326">
    <rdf:RDF>
      <cc:Work
         rdf:about="">
        <dc:format>image/svg+xml</dc:format>
        <dc:type
           rdf:resource="http://purl.org/dc/dcmitype/StillImage" />
        <dc:title></dc:title>
      </cc:Work>
    </rdf:RDF>
  </metadata>
  <g
     inkscape:label="Layer 1"
     inkscape:groupmode="layer"
     id="layer1"
     transform="translate(0,2884.2519)">
    <g
       id="g4027"
       transform="matrix(3.543307,0,0,3.543307,3789.9886,-6975.524)">
      <rect
         ry="5.0472884"
         y="1154.6479"
         x="-1069.619"
         height="1024"
         width="1024"
         id="rect2985-7"
         style="fill:#4d4d4d;fill-opacity:1;stroke:none" />
      <path
         transform="matrix(1.0441176,0,0,1.0441176,33.053233,1140.4127)"
         d="m -177.14285,504 c 0,214.60208 -173.96936,388.57144 -388.57144,388.57144 -214.60209,0 -388.57145,-173.96936 -388.57145,-388.57144 0,-214.60208 173.96936,-388.57144 388.57145,-388.57144 214.60208,0 388.57144,173.96936 388.57144,388.57144 z"
         sodipodi:ry="388.57144"
         sodipodi:rx="388.57144"
         sodipodi:cy="504"
         sodipodi:cx="-565.71429"
         id="path3807-7-8"
         style="fill:#9ca8b3;fill-opacity:1;stroke:none"
         sodipodi:type="arc" />
      <path
         sodipodi:nodetypes="cccccc"
         transform="translate(0,28.362183)"
         inkscape:connector-curvature="0"
         id="path5140"
         d="m -581.42854,2044 -212.6845,-418.0181 134.35628,-169.7326 227.92832,-18.0917 230.06332,397.7235 C -338.14927,2066.7055 -581.42854,2044 -581.42854,2044 z"
         style="fill:#858f98;fill-opacity:1;stroke:none" />
      <g
         transform="matrix(0.36898395,0,0,0.36898395,-91.117882,498.64497)"
         id="g5098">
        <path
           inkscape:connector-curvature="0"
           style="font-size:medium;font-style:normal;font-variant:normal;font-weight:normal;font-stretch:normal;text-indent:0;text-align:start;text-decoration:none;line-height:normal;letter-spacing:normal;word-spacing:normal;text-transform:none;direction:ltr;block-progression:tb;writing-mode:lr-tb;text-anchor:start;baseline-shift:baseline;color:#000000;fill:#587484;fill-opacity:1;stroke:none;stroke-width:50;marker:none;visibility:visible;display:inline;overflow:visible;enable-background:accumulate;font-family:Sans;-inkscape-font-specification:Sans"
           d="m -1541.0938,2643.75 a 25.0025,25.0025 0 0 0 -20.5312,37.8125 l 259.0312,448.625 -501.7187,0 a 25.0025,25.0025 0 1 0 0,50 l 501.6875,0 -252.5312,437.4063 a 25.00482,25.00482 0 1 0 43.3124,25 l 252.5313,-437.4063 259.0313,448.625 a 25.004841,25.004841 0 0 0 43.31245,-25 L -1216,3180.1875 l 501.71875,0 a 25.0025,25.0025 0 1 0 0,-50 l -501.71875,0 252.5625,-437.4375 a 25.0025,25.0025 0 0 0 -21.28125,-37.8125 25.0025,25.0025 0 0 0 -22.03125,12.8125 l -252.5625,437.4062 -259,-448.5937 a 25.0025,25.0025 0 0 0 -22.7813,-12.8125 z"
           transform="translate(0,28.362183)"
           id="path5085" />
        <path
           sodipodi:type="arc"
           style="fill:#770303;fill-opacity:1;stroke:none"
           id="path4927-9-8-6"
           sodipodi:cx="-1566.6666"
           sodipodi:cy="2624"
           sodipodi:rx="152.38095"
           sodipodi:ry="152.38095"
           d="m -1414.2857,2624 c 0,84.1577 -68.2233,152.381 -152.3809,152.381 -84.1577,0 -152.381,-68.2233 -152.381,-152.381 0,-84.1577 68.2233,-152.381 152.381,-152.381 84.1576,0 152.3809,68.2233 152.3809,152.381 z"
           transform="translate(307.36975,547.44601)" />
        <path
           style="font-size:medium;font-style:normal;font-variant:normal;font-weight:normal;font-stretch:normal;text-indent:0;text-align:start;text-decoration:none;line-height:normal;letter-spacing:normal;word-spacing:normal;text-transform:none;direction:ltr;block-progression:tb;writing-mode:lr-tb;text-anchor:start;baseline-shift:baseline;color:#000000;fill:#770303;fill-opacity:1;stroke:none;stroke-width:100;marker:none;visibility:visible;display:inline;overflow:visible;enable-background:accumulate;font-family:Sans;-inkscape-font-specification:Sans"
           d="m -1568.0312,2598.081 a 50.005,50.005 0 0 0 -43.2813,25 l -293.9063,509.0312 a 50.005,50.005 0 0 0 -0.2187,49.5938 l 304.75,539.5 a 50.005,50.005 0 0 0 43.5313,25.4062 l 582.4687,0 a 50.005,50.005 0 0 0 43.28125,-25 l 306.71875,-531.2188 a 50.005,50.005 0 0 0 0,-50 L -923.375,2623.081 a 50.005,50.005 0 0 0 -43.28125,-25 l -601.37495,0 z m 28.875,100 543.62495,0 269.78125,467.3124 -277.8125,481.2188 -524.375,0 -276.375,-489.2188 265.1563,-459.3124 z"
           id="path5047"
           inkscape:connector-curvature="0" />
        <g
           id="g5057">
          <path
             transform="translate(4.7619048,25.98123)"
             d="m -1414.2857,2624 c 0,84.1577 -68.2233,152.381 -152.3809,152.381 -84.1577,0 -152.381,-68.2233 -152.381,-152.381 0,-84.1577 68.2233,-152.381 152.381,-152.381 84.1576,0 152.3809,68.2233 152.3809,152.381 z"
             sodipodi:ry="152.38095"
             sodipodi:rx="152.38095"
             sodipodi:cy="2624"
             sodipodi:cx="-1566.6666"
             id="path4927"
             style="fill:#335061;fill-opacity:1;stroke:none"
             sodipodi:type="arc" />
          <path
             transform="translate(-290.47623,547.44601)"
             d="m -1414.2857,2624 c 0,84.1577 -68.2233,152.381 -152.3809,152.381 -84.1577,0 -152.381,-68.2233 -152.381,-152.381 0,-84.1577 68.2233,-152.381 152.381,-152.381 84.1576,0 152.3809,68.2233 152.3809,152.381 z"
             sodipodi:ry="152.38095"
             sodipodi:rx="152.38095"
             sodipodi:cy="2624"
             sodipodi:cx="-1566.6666"
             id="path4927-9"
             style="fill:#335061;fill-opacity:1;stroke:none"
             sodipodi:type="arc" />
          <path
             transform="translate(595.23806,25.98123)"
             d="m -1414.2857,2624 c 0,84.1577 -68.2233,152.381 -152.3809,152.381 -84.1577,0 -152.381,-68.2233 -152.381,-152.381 0,-84.1577 68.2233,-152.381 152.381,-152.381 84.1576,0 152.3809,68.2233 152.3809,152.381 z"
             sodipodi:ry="152.38095"
             sodipodi:rx="152.38095"
             sodipodi:cy="2624"
             sodipodi:cx="-1566.6666"
             id="path4927-9-3"
             style="fill:#335061;fill-opacity:1;stroke:none"
             sodipodi:type="arc" />
          <path
             transform="translate(4.7619048,1056.9336)"
             d="m -1414.2857,2624 c 0,84.1577 -68.2233,152.381 -152.3809,152.381 -84.1577,0 -152.381,-68.2233 -152.381,-152.381 0,-84.1577 68.2233,-152.381 152.381,-152.381 84.1576,0 152.3809,68.2233 152.3809,152.381 z"
             sodipodi:ry="152.38095"
             sodipodi:rx="152.38095"
             sodipodi:cy="2624"
             sodipodi:cx="-1566.6666"
             id="path4927-1"
             style="fill:#c90000;fill-opacity:1;stroke:none"
             sodipodi:type="arc" />
          <path
             transform="translate(595.23806,1056.9336)"
             d="m -1414.2857,2624 c 0,84.1577 -68.2233,152.381 -152.3809,152.381 -84.1577,0 -152.381,-68.2233 -152.381,-152.381 0,-84.1577 68.2233,-152.381 152.381,-152.381 84.1576,0 152.3809,68.2233 152.3809,152.381 z"
             sodipodi:ry="152.38095"
             sodipodi:rx="152.38095"
             sodipodi:cy="2624"
             sodipodi:cx="-1566.6666"
             id="path4927-9-3-9"
             style="fill:#c90000;fill-opacity:1;stroke:none"
             sodipodi:type="arc" />
          <path
             transform="translate(895.23805,547.44601)"
             d="m -1414.2857,2624 c 0,84.1577 -68.2233,152.381 -152.3809,152.381 -84.1577,0 -152.381,-68.2233 -152.381,-152.381 0,-84.1577 68.2233,-152.381 152.381,-152.381 84.1576,0 152.3809,68.2233 152.3809,152.381 z"
             sodipodi:ry="152.38095"
             sodipodi:rx="152.38095"
             sodipodi:cy="2624"
             sodipodi:cx="-1566.6666"
             id="path4927-9-8"
             style="fill:#c90000;fill-opacity:1;stroke:none"
             sodipodi:type="arc" />
        </g>
      </g>
    </g>
  </g>
</svg>
