<?xml version="1.0" encoding="UTF-8" standalone="no"?>
<!-- Created with Inkscape (http://www.inkscape.org/) -->

<svg
   xmlns:dc="http://purl.org/dc/elements/1.1/"
   xmlns:cc="http://creativecommons.org/ns#"
   xmlns:rdf="http://www.w3.org/1999/02/22-rdf-syntax-ns#"
   xmlns:svg="http://www.w3.org/2000/svg"
   xmlns="http://www.w3.org/2000/svg"
   xmlns:sodipodi="http://sodipodi.sourceforge.net/DTD/sodipodi-0.dtd"
   xmlns:inkscape="http://www.inkscape.org/namespaces/inkscape"
   width="3628.3464"
   height="3628.3464"
   id="svg3320"
   version="1.1"
   inkscape:version="0.48.5 r10040"
   sodipodi:docname="Icon 4  - Jenkins Analyzer.pdf">
  <defs
     id="defs3322" />
  <sodipodi:namedview
     inkscape:document-units="mm"
     pagecolor="#ffffff"
     bordercolor="#666666"
     borderopacity="1.0"
     inkscape:pageopacity="0.0"
     inkscape:pageshadow="2"
     inkscape:zoom="0.14276476"
     inkscape:cx="1814.1732"
     inkscape:cy="1814.1732"
     inkscape:current-layer="layer1"
     id="namedview3324"
     showgrid="false"
     units="mm"
     inkscape:object-nodes="true"
     inkscape:snap-page="true"
     inkscape:window-width="1366"
     inkscape:window-height="705"
     inkscape:window-x="-8"
     inkscape:window-y="-8"
     inkscape:window-maximized="1" />
  <metadata
     id="metadata3326">
    <rdf:RDF>
      <cc:Work
         rdf:about="">
        <dc:format>image/svg+xml</dc:format>
        <dc:type
           rdf:resource="http://purl.org/dc/dcmitype/StillImage" />
        <dc:title></dc:title>
      </cc:Work>
    </rdf:RDF>
  </metadata>
  <g
     inkscape:label="Layer 1"
     inkscape:groupmode="layer"
     id="layer1"
     transform="translate(0,2884.2519)">
    <g
       id="g4043"
       transform="matrix(3.5433071,0,0,3.5433071,-84.638027,-6994.4215)">
      <rect
         ry="5.0472884"
         y="1159.9812"
         x="23.886732"
         height="1024"
         width="1024"
         id="rect2985-17"
         style="fill:#4d4d4d;fill-opacity:1;stroke:none" />
      <path
         transform="matrix(1.0441176,0,0,1.0441176,1126.559,1145.7459)"
         d="m -177.14285,504 c 0,214.60208 -173.96936,388.57144 -388.57144,388.57144 -214.60209,0 -388.57145,-173.96936 -388.57145,-388.57144 0,-214.60208 173.96936,-388.57144 388.57145,-388.57144 214.60208,0 388.57144,173.96936 388.57144,388.57144 z"
         sodipodi:ry="388.57144"
         sodipodi:rx="388.57144"
         sodipodi:cy="504"
         sodipodi:cx="-565.71429"
         id="path3807-7-9-4"
         style="fill:#c90000;fill-opacity:1;stroke:none"
         sodipodi:type="arc" />
      <path
         sodipodi:nodetypes="ccccccccc"
         inkscape:connector-curvature="0"
         id="path5410-4"
         d="m 450.28504,2068.6484 -159.86068,-264.0578 133.59107,-225.8739 152.31576,225.8739 147.29642,-36.4441 -98.03559,-183.9242 128.32418,-42.9555 163.97143,267.7148 c 0,0 -88.51296,317.1497 -467.60259,259.6668 z"
         style="fill:#aa0000;stroke:none" />
      <g
         id="text3922"
         style="font-size:381.70611572px;font-style:normal;font-variant:normal;font-weight:normal;font-stretch:normal;line-height:125%;letter-spacing:0px;word-spacing:0px;fill:#ffffff;fill-opacity:1;stroke:none;font-family:Adobe Heiti Std R;-inkscape-font-specification:Adobe Heiti Std R">
        <path
           id="path3949"
           style="fill:#ffffff;font-family:Humnst777 Blk BT;-inkscape-font-specification:Humnst777 Blk BT"
           d="m 432.07312,1598.8271 -34.29391,99.3405 67.46954,0 z m -41.18997,-59.0824 85.17563,0 100.27241,264.8459 -75.48387,0 -18.82438,-56.1004 -101.94982,0 -19.75628,56.1004 -69.89248,0 z"
           inkscape:connector-curvature="0" />
        <path
           inkscape:connector-curvature="0"
           id="path3951"
           style="fill:#ffffff;font-family:Humnst777 Blk BT;-inkscape-font-specification:Humnst777 Blk BT"
           d="m 753.9162,1541.2668 -5.21864,54.6093 c -10.81022,-4.5972 -21.18536,-8.0452 -31.12545,-10.3441 -9.94042,-2.2985 -19.57004,-3.4478 -28.88889,-3.448 -14.28925,2e-4 -25.44097,2.2678 -33.4552,6.8028 -8.01443,4.5355 -12.02159,10.7792 -12.0215,18.7312 -9e-5,5.5916 2.05008,10.4685 6.15053,14.6308 4.10026,4.1627 10.25079,7.6107 18.45162,10.3441 2.73345,0.87 6.64743,2.1125 11.74193,3.7276 30.31765,9.8162 50.44666,18.4518 60.3871,25.9068 9.3188,7.2069 16.15273,15.4386 20.5018,24.6954 4.34865,9.257 6.52308,20.0981 6.5233,32.5233 -2.2e-4,29.1996 -9.69197,51.4719 -29.07527,66.8172 -19.38368,15.3453 -47.4649,23.0179 -84.24374,23.0179 -13.29519,0 -26.62134,-0.9319 -39.97849,-2.7957 -13.35728,-1.8638 -26.62131,-4.6595 -39.79212,-8.3871 l 5.96416,-59.0824 c 12.42529,5.5914 24.50891,9.8471 36.25089,12.767 11.74187,2.92 22.83146,4.38 33.26882,4.3799 13.91626,10e-5 24.91267,-2.6092 32.98925,-7.8279 8.07633,-5.2186 12.11456,-12.301 12.1147,-21.2473 -1.4e-4,-11.0585 -12.92247,-21.0609 -38.76703,-30.0072 -6.21276,-2.1122 -10.99651,-3.7896 -14.35125,-5.0323 -25.22349,-9.0703 -43.24019,-19.6008 -54.05019,-31.5914 -10.81006,-11.9903 -16.21507,-27.3045 -16.21505,-45.9426 -2e-5,-26.59 9.50535,-47.0297 28.51613,-61.319 19.01069,-14.2889 46.28426,-21.4334 81.82079,-21.4337 13.04646,3e-4 25.59603,0.7768 37.64875,2.3297 12.05239,1.5535 23.67006,3.9453 34.85305,7.1757 z" />
      </g>
    </g>
  </g>
</svg>
