<?xml version="1.0" encoding="UTF-8" standalone="no"?>
<!-- Created with Inkscape (http://www.inkscape.org/) -->

<svg
   xmlns:dc="http://purl.org/dc/elements/1.1/"
   xmlns:cc="http://creativecommons.org/ns#"
   xmlns:rdf="http://www.w3.org/1999/02/22-rdf-syntax-ns#"
   xmlns:svg="http://www.w3.org/2000/svg"
   xmlns="http://www.w3.org/2000/svg"
   xmlns:sodipodi="http://sodipodi.sourceforge.net/DTD/sodipodi-0.dtd"
   xmlns:inkscape="http://www.inkscape.org/namespaces/inkscape"
   width="3628.3464"
   height="3628.3464"
   id="svg3320"
   version="1.1"
   inkscape:version="0.48.5 r10040"
   sodipodi:docname="New document 2">
  <defs
     id="defs3322" />
  <sodipodi:namedview
     inkscape:document-units="mm"
     pagecolor="#ffffff"
     bordercolor="#666666"
     borderopacity="1.0"
     inkscape:pageopacity="0.0"
     inkscape:pageshadow="2"
     inkscape:zoom="0.14276476"
     inkscape:cx="1814.1732"
     inkscape:cy="1814.1732"
     inkscape:current-layer="layer1"
     id="namedview3324"
     showgrid="false"
     units="mm"
     inkscape:object-nodes="true"
     inkscape:snap-page="true"
     inkscape:window-width="1366"
     inkscape:window-height="705"
     inkscape:window-x="-8"
     inkscape:window-y="-8"
     inkscape:window-maximized="1" />
  <metadata
     id="metadata3326">
    <rdf:RDF>
      <cc:Work
         rdf:about="">
        <dc:format>image/svg+xml</dc:format>
        <dc:type
           rdf:resource="http://purl.org/dc/dcmitype/StillImage" />
        <dc:title></dc:title>
      </cc:Work>
    </rdf:RDF>
  </metadata>
  <g
     inkscape:label="Layer 1"
     inkscape:groupmode="layer"
     id="layer1"
     transform="translate(0,2884.2519)">
    <g
       id="g4187"
       transform="matrix(3.543307,0,0,3.543307,7900.5626,-2999.9334)">
      <rect
         ry="5.0472884"
         y="32.647896"
         x="-2229.7144"
         height="1024"
         width="1024"
         id="rect2985-1"
         style="fill:#4d4d4d;fill-opacity:1;stroke:none" />
      <path
         transform="matrix(1.0441176,0,0,1.0441176,-1127.0421,18.412625)"
         d="m -177.14285,504 c 0,214.60208 -173.96936,388.57144 -388.57144,388.57144 -214.60209,0 -388.57145,-173.96936 -388.57145,-388.57144 0,-214.60208 173.96936,-388.57144 388.57145,-388.57144 214.60208,0 388.57144,173.96936 388.57144,388.57144 z"
         sodipodi:ry="388.57144"
         sodipodi:rx="388.57144"
         sodipodi:cy="504"
         sodipodi:cx="-565.71429"
         id="path3807"
         style="fill:#9ca8b3;fill-opacity:1;stroke:none"
         sodipodi:type="arc" />
      <path
         sodipodi:nodetypes="ccccccscc"
         inkscape:connector-curvature="0"
         id="path4073"
         d="m -1489.4688,358.58093 c -42.7907,68.43454 -152.75,53.78125 -152.75,53.78125 -106.9094,-15.6676 -158.9715,84.00775 -158.9715,84.00775 -55.5529,92.9081 5.6278,191.55475 5.6278,191.55475 C -1873.3402,656.81356 -1942,745.39343 -1942,745.39343 l 108.6875,188.28125 c 36.6319,10.86796 75.4348,16.6875 115.5937,16.6875 189.6187,0 348.8293,-130.08154 393.3126,-305.875 z"
         style="opacity:0.15;fill:#000000;fill-opacity:1;stroke:none" />
      <g
         id="g4014"
         transform="matrix(0,1,-1,0,-2243.9867,3094.4596)">
        <g
           id="g4048"
           transform="matrix(4.1019686,2.3682727,-2.3682727,4.1019686,9672.4838,3984.901)">
          <path
             inkscape:connector-curvature="0"
             id="path3938"
             d="m -2714.9375,443.97195 c -9.0036,0.17094 -15.1284,2.88052 -19.5,6.75 -4.9961,4.42226 -7.699,10.28101 -9.9063,15.34375 -8.3276,19.10243 -25.8437,19.78125 -25.8437,19.78125 l 0.031,1 c 0,0 18.1881,-0.83848 26.7187,-20.40625 2.2007,-5.04797 4.8551,-10.71911 9.6563,-14.96875 4.8009,-4.24964 11.7829,-7.10084 22.8437,-6.4375 l 0,-0.5 0.031,0.5 c 11.0608,-0.66334 18.0426,2.18786 22.8437,6.4375 4.8011,4.24964 7.4243,9.92078 9.625,14.96875 8.5306,19.56777 26.75,20.40625 26.75,20.40625 l 0.031,-1 c 0,0 -17.516,-0.67882 -25.8438,-19.78125 -2.2071,-5.06274 -4.9102,-10.92149 -9.9062,-15.34375 -4.9914,-4.41808 -12.2593,-7.35525 -23.5,-6.6875 -0.011,-6.4e-4 -0.021,6.3e-4 -0.031,0 -1.3958,-0.0829 -2.7235,-0.0867 -4,-0.0625 z"
             style="font-size:medium;font-style:normal;font-variant:normal;font-weight:normal;font-stretch:normal;text-indent:0;text-align:start;text-decoration:none;line-height:normal;letter-spacing:normal;word-spacing:normal;text-transform:none;direction:ltr;block-progression:tb;writing-mode:lr-tb;text-anchor:start;baseline-shift:baseline;color:#000000;fill:#c90000;fill-opacity:1;stroke:#c90000;stroke-width:5;stroke-linecap:round;stroke-linejoin:round;stroke-miterlimit:4;stroke-opacity:1;stroke-dasharray:none;marker:none;visibility:visible;display:inline;overflow:visible;enable-background:accumulate;font-family:Sans;-inkscape-font-specification:Sans" />
          <path
             id="path3938-4"
             transform="matrix(-0.10556217,-0.18283904,0.18283904,-0.10556217,-2986.6448,205.82843)"
             d="m -1634.6562,262.40625 a 7.1055285,7.1055285 0 0 0 -3.7188,13.3125 l 111.7188,64.5 c -20.6348,16.72525 -55.7057,34.73334 -107.8438,28.84375 -26.1883,-2.95828 -58.5847,-6.21249 -91.4688,4.78125 -32.5693,10.88943 -64.3534,36.38479 -89.1874,85.25 -0.2402,0.47281 -0.5126,0.80361 -0.75,1.28125 -3.2132,4.94867 -6.0976,9.82644 -8.6876,14.46875 -0.2303,0.40846 -0.527,0.87616 -0.75,1.28125 -0.043,0.0788 -0.1127,0.17119 -0.1562,0.25 -0.2049,0.37391 -0.2343,0.721 -0.4375,1.09375 -21.1828,38.87081 -25.2596,73.3715 -19.25,102.875 6.9208,33.97619 25.9384,60.42429 41.5937,81.625 32.6297,44.18445 33.2547,85.25687 28.3438,111.40625 l -117.3125,-67.75 a 7.1055285,7.1055285 0 1 0 -7.0937,12.3125 l 120.8124,69.78125 c -2.9064,9.28143 -5.7812,14.59375 -5.7812,14.59375 a 11.842548,11.842548 0 0 0 4.8125,15.9375 l 4.1563,2.21875 a 11.842548,11.842548 0 0 0 16.2187,-4.96875 c 0,0 42.1839,-84.14928 -21.4687,-170.34375 -11.7639,-15.92986 -23.6801,-33.09363 -31.0626,-52.28125 l 49.9063,28.8125 a 7.1055285,7.1055285 0 0 0 10.2187,-3.15625 7.1055285,7.1055285 0 0 0 -3.125,-9.15625 l -62.6562,-36.1875 c -4.7138,-24.94935 -1.2698,-54.00696 21.9688,-91.75 l 122.5937,70.78125 a 7.1055285,7.1055285 0 0 0 10.25,-3.28125 7.1055285,7.1055285 0 0 0 -3.1563,-9 l -122.5,-70.71875 c 20.3284,-38.91653 42.9276,-57.31469 66.125,-66.46875 l 72.4376,41.84375 a 7.1055285,7.1055285 0 0 0 10.0624,-3.25 7.1055285,7.1055285 0 0 0 -2.9687,-9.0625 L -1703.5,397.25 c 21.837,-4.34113 44.3936,-2.40881 65.7188,0 106.4835,12.02879 158.3124,-66.6875 158.3124,-66.6875 a 11.842548,11.842548 0 0 0 0.5938,-1.03125 A 11.842548,11.842548 0 0 0 -1483.25,314 l -4.0312,-2.46875 a 11.842548,11.842548 0 0 0 -16.1876,3.78125 c 0,0 -3.9205,6.42712 -12.1562,14.875 l -115.6562,-66.78125 a 7.1055285,7.1055285 0 0 0 -3.375,-1 z"
             style="font-size:medium;font-style:normal;font-variant:normal;font-weight:normal;font-stretch:normal;text-indent:0;text-align:start;text-decoration:none;line-height:normal;letter-spacing:normal;word-spacing:normal;text-transform:none;direction:ltr;block-progression:tb;writing-mode:lr-tb;text-anchor:start;baseline-shift:baseline;color:#000000;fill:#335061;fill-opacity:1;fill-rule:nonzero;stroke:none;stroke-width:5;marker:none;visibility:visible;display:inline;overflow:visible;enable-background:accumulate;font-family:Sans;-inkscape-font-specification:Sans"
             inkscape:connector-curvature="0" />
          <path
             id="path3998"
             transform="matrix(-0.10556217,-0.18283904,0.18283904,-0.10556217,-2986.6448,205.82843)"
             d="m -1665.5938,210.65625 a 11.842548,11.842548 0 0 0 -10.375,6.4375 c 0,0 -42.184,84.14918 21.4688,170.34375 15.3528,20.78973 30.9874,43.64869 36.4375,70.40625 2.6773,13.1433 3.1193,27.44085 -0.4063,43.53125 l -112.625,-65.03125 a 7.1127224,7.1127224 0 1 0 -7.125,12.3125 l 115.75,66.8125 c -4.4038,12.80186 -11.2778,26.72172 -21.3437,42.03125 a 11.842548,11.842548 0 0 0 -0.5937,1.03125 11.842548,11.842548 0 0 0 -0.4376,0.75 c -2.418,4.83513 -4.8116,9.2997 -7.3124,13.5625 a 11.842548,11.842548 0 0 0 4.25,16.3125 l 4.0937,2.375 a 11.842548,11.842548 0 0 0 16.125,-4.21875 c 2.5773,-4.38821 5.0849,-9.11108 7.5313,-13.9375 0.259,-0.39189 0.4034,-0.76569 0.6562,-1.15625 3.5503,-5.46723 6.7829,-10.90325 9.5938,-16 21.7208,-39.32692 25.7543,-74.21353 19.6874,-104 -6.9205,-33.97607 -25.9385,-60.39316 -41.5937,-81.59375 -13.0768,-17.7075 -21.0125,-34.8955 -25.5313,-50.8125 l 53.7188,31 a 7.1055285,7.1055285 0 0 0 9.9062,-2.65625 7.1055285,7.1055285 0 0 0 -2.8124,-9.625 l -64.4688,-37.25 a 7.1055285,7.1055285 0 0 0 -0.25,-0.125 c -5.5931,-40.89591 9.8339,-69.73328 10.25,-70.5 -3e-4,-1.7e-4 0.2188,-0.375 0.2188,-0.375 a 11.842548,11.842548 0 0 0 -5,-15.875 l 0.062,-0.125 -4.1562,-2.25 a 11.842548,11.842548 0 0 0 -5.7188,-1.375 z m -117.9374,328.5625 a 7.1055285,7.1055285 0 0 0 -3.0313,13.28125 l 120.125,69.34375 a 7.1055285,7.1055285 0 0 0 10.1875,-3.15625 7.1055285,7.1055285 0 0 0 -3.0938,-9.125 l -120.0937,-69.34375 a 7.1055285,7.1055285 0 0 0 -4.0937,-1 z M -1884.4688,656.625 a 7.1055285,7.1055285 0 0 0 -3.0312,13.3125 l 82.0312,47.34375 a 7.1055285,7.1055285 0 0 0 9.9063,-2.625 A 7.1055285,7.1055285 0 0 0 -1798.375,705 l -82.0312,-47.375 a 7.1055285,7.1055285 0 0 0 -4.0626,-1 z"
             style="font-size:medium;font-style:normal;font-variant:normal;font-weight:normal;font-stretch:normal;text-indent:0;text-align:start;text-decoration:none;line-height:normal;letter-spacing:normal;word-spacing:normal;text-transform:none;direction:ltr;block-progression:tb;writing-mode:lr-tb;text-anchor:start;baseline-shift:baseline;color:#000000;fill:#c90000;fill-opacity:1;fill-rule:nonzero;stroke:none;stroke-width:3;marker:none;visibility:visible;display:inline;overflow:visible;enable-background:accumulate;font-family:Sans;-inkscape-font-specification:Sans"
             inkscape:connector-curvature="0" />
        </g>
      </g>
    </g>
  </g>
</svg>
