<?xml version="1.0" encoding="UTF-8" standalone="no"?>
<!-- Created with Inkscape (http://www.inkscape.org/) -->

<svg
   xmlns:dc="http://purl.org/dc/elements/1.1/"
   xmlns:cc="http://creativecommons.org/ns#"
   xmlns:rdf="http://www.w3.org/1999/02/22-rdf-syntax-ns#"
   xmlns:svg="http://www.w3.org/2000/svg"
   xmlns="http://www.w3.org/2000/svg"
   xmlns:sodipodi="http://sodipodi.sourceforge.net/DTD/sodipodi-0.dtd"
   xmlns:inkscape="http://www.inkscape.org/namespaces/inkscape"
   width="3628.3464"
   height="3628.3464"
   id="svg3320"
   version="1.1"
   inkscape:version="0.48.5 r10040"
   sodipodi:docname="Icon 3  - DRP.pdf">
  <defs
     id="defs3322" />
  <sodipodi:namedview
     inkscape:document-units="mm"
     pagecolor="#ffffff"
     bordercolor="#666666"
     borderopacity="1.0"
     inkscape:pageopacity="0.0"
     inkscape:pageshadow="2"
     inkscape:zoom="0.14276476"
     inkscape:cx="1814.1732"
     inkscape:cy="1814.1732"
     inkscape:current-layer="layer1"
     id="namedview3324"
     showgrid="false"
     units="mm"
     inkscape:object-nodes="true"
     inkscape:snap-page="true"
     inkscape:window-width="1366"
     inkscape:window-height="705"
     inkscape:window-x="-8"
     inkscape:window-y="-8"
     inkscape:window-maximized="1" />
  <metadata
     id="metadata3326">
    <rdf:RDF>
      <cc:Work
         rdf:about="">
        <dc:format>image/svg+xml</dc:format>
        <dc:type
           rdf:resource="http://purl.org/dc/dcmitype/StillImage" />
        <dc:title></dc:title>
      </cc:Work>
    </rdf:RDF>
  </metadata>
  <g
     inkscape:label="Layer 1"
     inkscape:groupmode="layer"
     id="layer1"
     transform="translate(0,2884.2519)">
    <g
       id="g4197"
       transform="matrix(3.543307,0,0,3.543307,3836.8955,-2999.9334)">
      <rect
         ry="5.0472884"
         y="32.647896"
         x="-1082.8572"
         height="1024"
         width="1024"
         id="rect2985"
         style="fill:#4d4d4d;fill-opacity:1;stroke:none" />
      <path
         transform="matrix(1.0441176,0,0,1.0441176,19.815074,18.412625)"
         d="m -177.14285,504 c 0,214.60208 -173.96936,388.57144 -388.57144,388.57144 -214.60209,0 -388.57145,-173.96936 -388.57145,-388.57144 0,-214.60208 173.96936,-388.57144 388.57145,-388.57144 214.60208,0 388.57144,173.96936 388.57144,388.57144 z"
         sodipodi:ry="388.57144"
         sodipodi:rx="388.57144"
         sodipodi:cy="504"
         sodipodi:cx="-565.71429"
         id="path3807-7-9"
         style="fill:#c90000;fill-opacity:1;stroke:none"
         sodipodi:type="arc" />
      <path
         sodipodi:nodetypes="cccccc"
         transform="translate(0,28.362183)"
         inkscape:connector-curvature="0"
         id="path5410"
         d="m -628.28471,917.96702 -170.58799,-295.46707 232.18509,-154.33572 276.64049,-3.19777 104.01779,180.16409 c 0,0 -80.6853,305.49996 -442.25538,272.83647 z"
         style="fill:#aa0000;stroke:none" />
      <g
         transform="matrix(1.6775622,0,0,1.6775622,-1557.8243,-2276.6721)"
         id="g5374">
        <path
           inkscape:connector-curvature="0"
           style="fill:#335061;fill-opacity:1;stroke:#335061;stroke-width:1px;stroke-linecap:butt;stroke-linejoin:miter;stroke-opacity:1"
           d="m 492.84375,1615.4688 c -20.19425,0.2356 -44.89167,2.1528 -73.28125,7.375 0,0 -3.04441,7.9856 1.375,22.625 0,0 9.12293,-0.826 12.4375,20.7187 0,0 4.41712,37.8567 20.4375,50.5625 3.75661,4.8377 49.2523,32.105 89.78125,0 7.09795,-5.6226 20.71669,-21.2719 24.03125,-44.75 0,0 4.69035,-21.2802 16.84375,-22.9375 l 7.75,0 c 12.1534,1.6573 16.84375,22.9375 16.84375,22.9375 3.31456,23.4781 16.9333,39.1274 24.03125,44.75 40.52895,32.105 86.02464,4.8377 89.78125,0 16.02038,-12.7058 20.4375,-50.5625 20.4375,-50.5625 3.31457,-21.5447 12.40625,-20.7187 12.40625,-20.7187 4.41941,-14.6394 1.40625,-22.625 1.40625,-22.625 -82.58786,-15.1919 -133.96875,-2.2188 -133.96875,-2.2188 -12.42961,2.7622 -30.9375,4.125 -30.9375,4.125 l -7.75,0 c 0,0 -18.50789,-1.3628 -30.9375,-4.125 0,0 -22.13484,-5.6061 -60.6875,-5.1562 z"
           transform="translate(0,28.362183)"
           id="path5171" />
        <path
           style="fill:#ffffff;stroke:none"
           d="m 424.35282,1661.7881 c 0,0 9.57873,-5.623 17.31271,1.2823 0,0 -6.39525,6.4394 -17.31271,-1.2823 z"
           id="path5173"
           inkscape:connector-curvature="0"
           sodipodi:nodetypes="ccc" />
        <path
           style="fill:#9ca8b3;fill-opacity:1;stroke:none"
           d="m 502.98494,1650.0884 c 0,0 53.03301,-0.2762 58.28107,18.5063 0,0 8.56262,40.6034 -18.78253,69.3296 0,0 -14.63932,18.5063 -50.54708,15.1918 1.70303,0 -31.13945,1.381 -45.29903,-33.1457 0,0 -6.85635,-20.1629 -3.93664,-41.6958 0,0 -3.51917,-30.46 60.28421,-28.1862 z"
           id="path5175"
           inkscape:connector-curvature="0"
           sodipodi:nodetypes="ccccccc" />
        <path
           style="fill:#ffffff;stroke:none"
           d="m 752.32568,1661.7881 c 0,0 -9.57873,-5.623 -17.31271,1.2823 0,0 6.39525,6.4394 17.31271,-1.2823 z"
           id="path5173-2"
           inkscape:connector-curvature="0"
           sodipodi:nodetypes="ccc" />
        <path
           style="fill:#9ca8b3;fill-opacity:1;stroke:none"
           d="m 673.69356,1650.0884 c 0,0 -53.03301,-0.2762 -58.28107,18.5063 0,0 -8.56262,40.6034 18.78253,69.3296 0,0 14.63932,18.5063 50.54708,15.1918 -1.70303,0 31.13945,1.381 45.29903,-33.1457 0,0 6.85635,-20.1629 3.93664,-41.6958 0,0 3.51917,-30.46 -60.28421,-28.1862 z"
           id="path5175-0"
           inkscape:connector-curvature="0"
           sodipodi:nodetypes="ccccccc" />
      </g>
    </g>
  </g>
</svg>
